# xmcd
# Track frame offsets:
# 150
# 13440
# 32419
# 47723
# 58777
# 73714
# 92327
# 105638
# 119602
#
# Disc length: 1855 seconds
# Revision: 0
# Processed by: cddbd v1.5.1PL0 Copyright (c) Steve Scherf et al.
# Submitted via: VisiTrax 2.9.10.228 - For more info visit www.synapsa.com
#
DISCID=77073d09
DTITLE=Various Artist - Hits Monthly Nashville  PHN0503
DYEAR=1900
DGENRE=Karaoke
TTITLE0=Krauss, Alison - Restless
TTITLE1=Dalley, Amy - I Would Cry
TTITLE2=Adkins, Trace - Songs About Me
TTITLE3=Nichols, Joe - What's A Guy Gotta Do
TTITLE4=Morgan, Craig - That's What I Love About Sunday
TTITLE5=Larsen, Blaine - How Do You Get That Lonely
TTITLE6=Blue County - Nothin' But Cowboy Boots
TTITLE7=Anderson, Keith - Pickin' Wildflowers
TTITLE8=Evans, Sara - Tonight
EXTD=
EXTT0=
EXTT1=
EXTT2=
EXTT3=
EXTT4=
EXTT5=
EXTT6=
EXTT7=
EXTT8=
PLAYORDER=
